<svg xmlns="http://www.w3.org/2000/svg" xmlns:xlink="http://www.w3.org/1999/xlink" width="500" zoomAndPan="magnify" viewBox="0 0 375 374.999991" height="500" preserveAspectRatio="xMidYMid meet" version="1.0"><defs><g/><clipPath id="dd2b149ffb"><path d="M 114.734375 91 L 254.234375 91 L 254.234375 187.453125 L 114.734375 187.453125 Z M 114.734375 91 " clip-rule="nonzero"/></clipPath><clipPath id="b0b0a203f1"><path d="M 153 88.453125 L 216 88.453125 L 216 102 L 153 102 Z M 153 88.453125 " clip-rule="nonzero"/></clipPath></defs><g fill="#000000" fill-opacity="1"><g transform="translate(76.753228, 229.21661)"><g><path d="M 11.1875 0 L 4.640625 -17.09375 L 4.53125 -17.09375 C 4.65625 -15.738281 4.71875 -14.128906 4.71875 -12.265625 L 4.71875 0 L 2.65625 0 L 2.65625 -19.28125 L 6.03125 -19.28125 L 12.125 -3.375 L 12.234375 -3.375 L 18.390625 -19.28125 L 21.734375 -19.28125 L 21.734375 0 L 19.5 0 L 19.5 -12.421875 C 19.5 -13.847656 19.5625 -15.394531 19.6875 -17.0625 L 19.578125 -17.0625 L 12.984375 0 Z M 11.1875 0 "/></g></g></g><g fill="#000000" fill-opacity="1"><g transform="translate(110.336691, 229.21661)"><g><path d="M 19.375 -9.65625 C 19.375 -6.570312 18.59375 -4.144531 17.03125 -2.375 C 15.476562 -0.613281 13.3125 0.265625 10.53125 0.265625 C 7.695312 0.265625 5.503906 -0.597656 3.953125 -2.328125 C 2.410156 -4.066406 1.640625 -6.519531 1.640625 -9.6875 C 1.640625 -12.820312 2.410156 -15.253906 3.953125 -16.984375 C 5.503906 -18.710938 7.707031 -19.578125 10.5625 -19.578125 C 13.332031 -19.578125 15.492188 -18.695312 17.046875 -16.9375 C 18.597656 -15.175781 19.375 -12.75 19.375 -9.65625 Z M 4.015625 -9.65625 C 4.015625 -7.050781 4.570312 -5.070312 5.6875 -3.71875 C 6.800781 -2.375 8.414062 -1.703125 10.53125 -1.703125 C 12.664062 -1.703125 14.273438 -2.375 15.359375 -3.71875 C 16.453125 -5.0625 17 -7.039062 17 -9.65625 C 17 -12.25 16.457031 -14.21875 15.375 -15.5625 C 14.289062 -16.90625 12.6875 -17.578125 10.5625 -17.578125 C 8.425781 -17.578125 6.800781 -16.898438 5.6875 -15.546875 C 4.570312 -14.203125 4.015625 -12.238281 4.015625 -9.65625 Z M 4.015625 -9.65625 "/></g></g></g><g fill="#000000" fill-opacity="1"><g transform="translate(140.571521, 229.21661)"><g><path d="M 4.890625 -8.015625 L 4.890625 0 L 2.65625 0 L 2.65625 -19.28125 L 7.9375 -19.28125 C 10.300781 -19.28125 12.046875 -18.828125 13.171875 -17.921875 C 14.304688 -17.015625 14.875 -15.648438 14.875 -13.828125 C 14.875 -11.273438 13.582031 -9.550781 11 -8.65625 L 16.234375 0 L 13.578125 0 L 8.90625 -8.015625 Z M 4.890625 -9.9375 L 7.96875 -9.9375 C 9.550781 -9.9375 10.707031 -10.25 11.4375 -10.875 C 12.175781 -11.507812 12.546875 -12.457031 12.546875 -13.71875 C 12.546875 -14.988281 12.171875 -15.90625 11.421875 -16.46875 C 10.671875 -17.03125 9.46875 -17.3125 7.8125 -17.3125 L 4.890625 -17.3125 Z M 4.890625 -9.9375 "/></g></g></g><g fill="#000000" fill-opacity="1"><g transform="translate(166.46895, 229.21661)"><g><path d="M 2.65625 0 L 2.65625 -19.28125 L 4.890625 -19.28125 L 4.890625 0 Z M 2.65625 0 "/></g></g></g><g fill="#000000" fill-opacity="1"><g transform="translate(183.203781, 229.21661)"><g><path d="M 11.1875 0 L 4.640625 -17.09375 L 4.53125 -17.09375 C 4.65625 -15.738281 4.71875 -14.128906 4.71875 -12.265625 L 4.71875 0 L 2.65625 0 L 2.65625 -19.28125 L 6.03125 -19.28125 L 12.125 -3.375 L 12.234375 -3.375 L 18.390625 -19.28125 L 21.734375 -19.28125 L 21.734375 0 L 19.5 0 L 19.5 -12.421875 C 19.5 -13.847656 19.5625 -15.394531 19.6875 -17.0625 L 19.578125 -17.0625 L 12.984375 0 Z M 11.1875 0 "/></g></g></g><g fill="#000000" fill-opacity="1"><g transform="translate(216.787245, 229.21661)"><g><path d="M 19.375 -9.65625 C 19.375 -6.570312 18.59375 -4.144531 17.03125 -2.375 C 15.476562 -0.613281 13.3125 0.265625 10.53125 0.265625 C 7.695312 0.265625 5.503906 -0.597656 3.953125 -2.328125 C 2.410156 -4.066406 1.640625 -6.519531 1.640625 -9.6875 C 1.640625 -12.820312 2.410156 -15.253906 3.953125 -16.984375 C 5.503906 -18.710938 7.707031 -19.578125 10.5625 -19.578125 C 13.332031 -19.578125 15.492188 -18.695312 17.046875 -16.9375 C 18.597656 -15.175781 19.375 -12.75 19.375 -9.65625 Z M 4.015625 -9.65625 C 4.015625 -7.050781 4.570312 -5.070312 5.6875 -3.71875 C 6.800781 -2.375 8.414062 -1.703125 10.53125 -1.703125 C 12.664062 -1.703125 14.273438 -2.375 15.359375 -3.71875 C 16.453125 -5.0625 17 -7.039062 17 -9.65625 C 17 -12.25 16.457031 -14.21875 15.375 -15.5625 C 14.289062 -16.90625 12.6875 -17.578125 10.5625 -17.578125 C 8.425781 -17.578125 6.800781 -16.898438 5.6875 -15.546875 C 4.570312 -14.203125 4.015625 -12.238281 4.015625 -9.65625 Z M 4.015625 -9.65625 "/></g></g></g><g fill="#000000" fill-opacity="1"><g transform="translate(247.022075, 229.21661)"><g><path d="M 8.578125 0 L 6.34375 0 L 6.34375 -17.28125 L 0.234375 -17.28125 L 0.234375 -19.28125 L 14.6875 -19.28125 L 14.6875 -17.28125 L 8.578125 -17.28125 Z M 8.578125 0 "/></g></g></g><g fill="#000000" fill-opacity="1"><g transform="translate(271.166086, 229.21661)"><g><path d="M 19.375 -9.65625 C 19.375 -6.570312 18.59375 -4.144531 17.03125 -2.375 C 15.476562 -0.613281 13.3125 0.265625 10.53125 0.265625 C 7.695312 0.265625 5.503906 -0.597656 3.953125 -2.328125 C 2.410156 -4.066406 1.640625 -6.519531 1.640625 -9.6875 C 1.640625 -12.820312 2.410156 -15.253906 3.953125 -16.984375 C 5.503906 -18.710938 7.707031 -19.578125 10.5625 -19.578125 C 13.332031 -19.578125 15.492188 -18.695312 17.046875 -16.9375 C 18.597656 -15.175781 19.375 -12.75 19.375 -9.65625 Z M 4.015625 -9.65625 C 4.015625 -7.050781 4.570312 -5.070312 5.6875 -3.71875 C 6.800781 -2.375 8.414062 -1.703125 10.53125 -1.703125 C 12.664062 -1.703125 14.273438 -2.375 15.359375 -3.71875 C 16.453125 -5.0625 17 -7.039062 17 -9.65625 C 17 -12.25 16.457031 -14.21875 15.375 -15.5625 C 14.289062 -16.90625 12.6875 -17.578125 10.5625 -17.578125 C 8.425781 -17.578125 6.800781 -16.898438 5.6875 -15.546875 C 4.570312 -14.203125 4.015625 -12.238281 4.015625 -9.65625 Z M 4.015625 -9.65625 "/></g></g></g><g fill="#000000" fill-opacity="1"><g transform="translate(113.913381, 277.066623)"><g><path d="M 11.125 -10.09375 L 17.671875 -10.09375 L 17.671875 -0.71875 C 16.660156 -0.394531 15.625 -0.148438 14.5625 0.015625 C 13.507812 0.179688 12.289062 0.265625 10.90625 0.265625 C 7.988281 0.265625 5.710938 -0.597656 4.078125 -2.328125 C 2.453125 -4.066406 1.640625 -6.503906 1.640625 -9.640625 C 1.640625 -11.640625 2.039062 -13.394531 2.84375 -14.90625 C 3.65625 -16.414062 4.816406 -17.566406 6.328125 -18.359375 C 7.835938 -19.148438 9.609375 -19.546875 11.640625 -19.546875 C 13.691406 -19.546875 15.609375 -19.171875 17.390625 -18.421875 L 16.515625 -16.4375 C 14.773438 -17.175781 13.101562 -17.546875 11.5 -17.546875 C 9.144531 -17.546875 7.304688 -16.847656 5.984375 -15.453125 C 4.671875 -14.054688 4.015625 -12.117188 4.015625 -9.640625 C 4.015625 -7.035156 4.648438 -5.0625 5.921875 -3.71875 C 7.191406 -2.375 9.054688 -1.703125 11.515625 -1.703125 C 12.859375 -1.703125 14.164062 -1.851562 15.4375 -2.15625 L 15.4375 -8.09375 L 11.125 -8.09375 Z M 11.125 -10.09375 "/></g></g></g><g fill="#000000" fill-opacity="1"><g transform="translate(142.777118, 277.066623)"><g><path d="M 14.765625 0 L 12.359375 -6.125 L 4.640625 -6.125 L 2.265625 0 L 0 0 L 7.625 -19.359375 L 9.5 -19.359375 L 17.09375 0 Z M 11.671875 -8.140625 L 9.421875 -14.125 C 9.128906 -14.875 8.832031 -15.800781 8.53125 -16.90625 C 8.332031 -16.0625 8.054688 -15.132812 7.703125 -14.125 L 5.4375 -8.140625 Z M 11.671875 -8.140625 "/></g></g></g><g fill="#000000" fill-opacity="1"><g transform="translate(169.070055, 277.066623)"><g><path d="M 4.890625 -8.015625 L 4.890625 0 L 2.65625 0 L 2.65625 -19.28125 L 7.9375 -19.28125 C 10.300781 -19.28125 12.046875 -18.828125 13.171875 -17.921875 C 14.304688 -17.015625 14.875 -15.648438 14.875 -13.828125 C 14.875 -11.273438 13.582031 -9.550781 11 -8.65625 L 16.234375 0 L 13.578125 0 L 8.90625 -8.015625 Z M 4.890625 -9.9375 L 7.96875 -9.9375 C 9.550781 -9.9375 10.707031 -10.25 11.4375 -10.875 C 12.175781 -11.507812 12.546875 -12.457031 12.546875 -13.71875 C 12.546875 -14.988281 12.171875 -15.90625 11.421875 -16.46875 C 10.671875 -17.03125 9.46875 -17.3125 7.8125 -17.3125 L 4.890625 -17.3125 Z M 4.890625 -9.9375 "/></g></g></g><g fill="#000000" fill-opacity="1"><g transform="translate(194.967483, 277.066623)"><g><path d="M 10.90625 -17.546875 C 8.78125 -17.546875 7.101562 -16.835938 5.875 -15.421875 C 4.65625 -14.015625 4.046875 -12.085938 4.046875 -9.640625 C 4.046875 -7.117188 4.632812 -5.171875 5.8125 -3.796875 C 7 -2.421875 8.6875 -1.734375 10.875 -1.734375 C 12.21875 -1.734375 13.753906 -1.972656 15.484375 -2.453125 L 15.484375 -0.484375 C 14.140625 0.015625 12.488281 0.265625 10.53125 0.265625 C 7.695312 0.265625 5.503906 -0.59375 3.953125 -2.3125 C 2.410156 -4.039062 1.640625 -6.488281 1.640625 -9.65625 C 1.640625 -11.644531 2.007812 -13.382812 2.75 -14.875 C 3.5 -16.375 4.570312 -17.523438 5.96875 -18.328125 C 7.375 -19.140625 9.023438 -19.546875 10.921875 -19.546875 C 12.953125 -19.546875 14.722656 -19.175781 16.234375 -18.4375 L 15.28125 -16.515625 C 13.820312 -17.203125 12.363281 -17.546875 10.90625 -17.546875 Z M 10.90625 -17.546875 "/></g></g></g><g fill="#000000" fill-opacity="1"><g transform="translate(221.207685, 277.066623)"><g><path d="M 2.65625 0 L 2.65625 -19.28125 L 4.890625 -19.28125 L 4.890625 0 Z M 2.65625 0 "/></g></g></g><g fill="#000000" fill-opacity="1"><g transform="translate(237.942516, 277.066623)"><g><path d="M 14.765625 0 L 12.359375 -6.125 L 4.640625 -6.125 L 2.265625 0 L 0 0 L 7.625 -19.359375 L 9.5 -19.359375 L 17.09375 0 Z M 11.671875 -8.140625 L 9.421875 -14.125 C 9.128906 -14.875 8.832031 -15.800781 8.53125 -16.90625 C 8.332031 -16.0625 8.054688 -15.132812 7.703125 -14.125 L 5.4375 -8.140625 Z M 11.671875 -8.140625 "/></g></g></g><g clip-path="url(#dd2b149ffb)"><path fill="#000000" d="M 254.207031 93.261719 C 254.191406 93.078125 254.136719 92.898438 254.050781 92.71875 C 254.023438 92.660156 254.011719 92.605469 253.96875 92.5625 C 253.941406 92.535156 253.941406 92.492188 253.914062 92.464844 C 253.789062 92.3125 253.621094 92.1875 253.453125 92.105469 C 253.4375 92.105469 253.4375 92.089844 253.4375 92.089844 C 253.410156 92.074219 253.382812 92.089844 253.355469 92.074219 C 253.171875 92.007812 252.976562 91.976562 252.769531 91.976562 C 252.699219 91.976562 252.644531 91.976562 252.574219 91.992188 C 252.351562 92.035156 252.128906 92.117188 251.945312 92.269531 L 184.484375 148.050781 L 117.019531 92.269531 C 116.824219 92.117188 116.601562 92.035156 116.378906 91.992188 C 116.324219 91.976562 116.269531 91.976562 116.210938 91.976562 C 116.003906 91.964844 115.808594 91.992188 115.613281 92.074219 C 115.585938 92.089844 115.558594 92.074219 115.542969 92.089844 C 115.527344 92.089844 115.527344 92.105469 115.527344 92.105469 C 115.363281 92.1875 115.195312 92.300781 115.070312 92.464844 C 115.039062 92.492188 115.039062 92.535156 115.011719 92.5625 C 114.972656 92.621094 114.957031 92.660156 114.929688 92.71875 C 114.84375 92.882812 114.789062 93.066406 114.777344 93.261719 C 114.777344 93.304688 114.746094 93.332031 114.746094 93.359375 L 114.746094 185.800781 C 114.746094 186.566406 115.375 187.195312 116.144531 187.195312 C 116.910156 187.195312 117.539062 186.566406 117.539062 185.800781 L 117.539062 96.316406 L 140.652344 115.417969 C 137.027344 122.378906 135.101562 130.160156 135.101562 138.023438 C 135.101562 165.132812 157.265625 187.195312 184.496094 187.195312 C 211.726562 187.195312 233.878906 165.148438 233.894531 138.050781 C 233.894531 138.039062 233.894531 138.023438 233.894531 138.023438 C 233.894531 137.257812 233.265625 136.628906 232.5 136.628906 L 214.8125 136.628906 C 214.042969 136.628906 213.414062 137.257812 213.414062 138.023438 C 213.414062 138.792969 214.042969 139.417969 214.8125 139.417969 L 231.019531 139.417969 C 230.265625 164.351562 209.707031 184.40625 184.484375 184.40625 C 158.789062 184.40625 137.875 163.601562 137.875 138.023438 C 137.875 130.816406 139.605469 123.675781 142.84375 117.246094 L 183.605469 150.9375 C 183.648438 150.980469 183.703125 150.992188 183.757812 151.023438 C 183.800781 151.050781 183.84375 151.089844 183.882812 151.105469 C 183.910156 151.117188 183.941406 151.117188 183.96875 151.132812 C 184.007812 151.148438 184.039062 151.160156 184.078125 151.175781 C 184.121094 151.1875 184.164062 151.1875 184.21875 151.203125 C 184.234375 151.203125 184.246094 151.203125 184.246094 151.203125 C 184.300781 151.214844 184.371094 151.230469 184.429688 151.230469 C 184.457031 151.230469 184.46875 151.246094 184.496094 151.246094 C 184.527344 151.246094 184.554688 151.230469 184.582031 151.230469 C 184.636719 151.230469 184.691406 151.214844 184.75 151.203125 C 184.75 151.203125 184.761719 151.203125 184.761719 151.203125 C 184.820312 151.1875 184.875 151.1875 184.929688 151.175781 C 184.972656 151.160156 185 151.148438 185.027344 151.132812 C 185.054688 151.117188 185.082031 151.117188 185.113281 151.105469 C 185.152344 151.078125 185.195312 151.050781 185.238281 151.023438 C 185.292969 150.992188 185.335938 150.980469 185.390625 150.9375 L 251.445312 96.316406 L 251.445312 185.800781 C 251.445312 186.566406 252.070312 187.195312 252.839844 187.195312 C 253.605469 187.195312 254.234375 186.566406 254.234375 185.800781 L 254.234375 93.359375 C 254.234375 93.316406 254.207031 93.289062 254.207031 93.261719 Z M 254.207031 93.261719 " fill-opacity="1" fill-rule="nonzero"/></g><g clip-path="url(#b0b0a203f1)"><path fill="#000000" d="M 154.992188 101.726562 C 155.285156 101.726562 155.59375 101.628906 155.84375 101.433594 C 164.128906 95.03125 174.035156 91.644531 184.484375 91.644531 C 194.945312 91.644531 204.851562 95.019531 213.121094 101.40625 C 213.738281 101.878906 214.617188 101.769531 215.074219 101.152344 C 215.550781 100.539062 215.4375 99.675781 214.824219 99.203125 C 206.0625 92.4375 195.574219 88.855469 184.484375 88.855469 C 173.40625 88.855469 162.917969 92.4375 154.140625 99.230469 C 153.527344 99.703125 153.417969 100.582031 153.890625 101.183594 C 154.171875 101.542969 154.574219 101.726562 154.992188 101.726562 Z M 154.992188 101.726562 " fill-opacity="1" fill-rule="nonzero"/></g><g fill="#000000" fill-opacity="1"><g transform="translate(178.383868, 249.767532)"><g><path d="M 3.375 -9.5625 C 3.375 -9.1875 3.472656 -8.828125 3.671875 -8.484375 C 3.867188 -8.140625 4.203125 -7.726562 4.671875 -7.25 C 5.378906 -7.664062 5.867188 -8.046875 6.140625 -8.390625 C 6.421875 -8.734375 6.5625 -9.128906 6.5625 -9.578125 C 6.5625 -10.003906 6.421875 -10.347656 6.140625 -10.609375 C 5.859375 -10.867188 5.484375 -11 5.015625 -11 C 4.523438 -11 4.128906 -10.867188 3.828125 -10.609375 C 3.523438 -10.347656 3.375 -10 3.375 -9.5625 Z M 4.640625 -1.046875 C 5.953125 -1.046875 7.039062 -1.46875 7.90625 -2.3125 L 4.34375 -5.765625 C 3.738281 -5.398438 3.3125 -5.09375 3.0625 -4.84375 C 2.8125 -4.601562 2.625 -4.34375 2.5 -4.0625 C 2.382812 -3.789062 2.328125 -3.476562 2.328125 -3.125 C 2.328125 -2.488281 2.535156 -1.984375 2.953125 -1.609375 C 3.378906 -1.234375 3.941406 -1.046875 4.640625 -1.046875 Z M 0.921875 -3.09375 C 0.921875 -3.800781 1.109375 -4.425781 1.484375 -4.96875 C 1.867188 -5.507812 2.550781 -6.0625 3.53125 -6.625 C 3.0625 -7.132812 2.742188 -7.523438 2.578125 -7.796875 C 2.410156 -8.066406 2.28125 -8.34375 2.1875 -8.625 C 2.09375 -8.914062 2.046875 -9.21875 2.046875 -9.53125 C 2.046875 -10.34375 2.3125 -10.976562 2.84375 -11.4375 C 3.375 -11.894531 4.113281 -12.125 5.0625 -12.125 C 5.945312 -12.125 6.640625 -11.894531 7.140625 -11.4375 C 7.648438 -10.988281 7.90625 -10.359375 7.90625 -9.546875 C 7.90625 -8.960938 7.71875 -8.421875 7.34375 -7.921875 C 6.976562 -7.429688 6.367188 -6.9375 5.515625 -6.4375 L 8.84375 -3.234375 C 9.144531 -3.578125 9.382812 -3.972656 9.5625 -4.421875 C 9.75 -4.878906 9.90625 -5.378906 10.03125 -5.921875 L 11.40625 -5.921875 C 11.03125 -4.359375 10.472656 -3.175781 9.734375 -2.375 L 12.171875 0 L 10.296875 0 L 8.796875 -1.453125 C 8.148438 -0.878906 7.492188 -0.46875 6.828125 -0.21875 C 6.171875 0.03125 5.429688 0.15625 4.609375 0.15625 C 3.441406 0.15625 2.535156 -0.128906 1.890625 -0.703125 C 1.242188 -1.273438 0.921875 -2.070312 0.921875 -3.09375 Z M 0.921875 -3.09375 "/></g></g></g></svg>